# xmcd
#
# Track frame offsets:
#	150
#	11251
#	21849
#	31730
#	41419
#	52973
#	65798
#	76221
#	87009
#	100407
#	111164
#
# Disc length: 1612 seconds
#
# Revision: 1
# Processed by: cddbd v1.5.2PL0 Copyright (c) Steve Scherf et al.
# Submitted via: audiograbber 1.83.01
#
DISCID=7a064a0b
DTITLE=Dave Dudley - My kind of love
DYEAR=1900
DGENRE=Country
TTITLE0=My kind of love
TTITLE1=Temporarily
TTITLE2=How does it feel
TTITLE3=Making plans
TTITLE4=Stirring up the embers
TTITLE5=I lived for a while
TTITLE6=I won't go down that road
TTITLE7=I thought her everything she knows
TTITLE8=Sweet thang
TTITLE9=Subject to change
TTITLE10=My way of life
EXTD=
EXTT0=
EXTT1=
EXTT2=
EXTT3=
EXTT4=
EXTT5=
EXTT6=
EXTT7=
EXTT8=
EXTT9=
EXTT10=
PLAYORDER=
